<svg style="height: 512px; width: 512px;" xmlns="http://www.w3.org/2000/svg" viewBox="0 0 512 512"><defs><filter id="shadow-1" height="300%" width="300%" x="-100%" y="-100%"><feFlood flood-color="rgba(255, 128, 51, 1)" result="flood"></feFlood><feComposite in="flood" in2="SourceGraphic" operator="atop" result="composite"></feComposite><feGaussianBlur in="composite" stdDeviation="10" result="blur"></feGaussianBlur><feOffset dx="0" dy="0" result="offset"></feOffset><feComposite in="SourceGraphic" in2="offset" operator="over"></feComposite></filter></defs><rect fill="#292929" fill-opacity="1" height="512" width="512" rx="32" ry="32"></rect><g class="" style="" transform="translate(0,0)"><path d="M64 64v128l48-48 48 48 32-32-48-48 48-48H64zm256 0 48 48-48 48 32 32 48-48 48 48V64H320zM64 320v128h128l-48-48 48-48-32-32-48 48-48-48zm288 0-32 32 48 48-48 48h128V320l-48 48-48-48z" fill="#fff" fill-opacity="1" stroke="#ff8033" stroke-opacity="1" stroke-width="8" transform="translate(0, 0) scale(1, 1) rotate(90, 256, 256) skewX(0) skewY(0)" filter="url(#shadow-1)"></path></g></svg>