<svg style="height: 512px; width: 512px;" xmlns="http://www.w3.org/2000/svg" viewBox="0 0 512 512"><defs><filter id="shadow-1" height="300%" width="300%" x="-100%" y="-100%"><feFlood flood-color="rgba(255, 128, 51, 1)" result="flood"></feFlood><feComposite in="flood" in2="SourceGraphic" operator="atop" result="composite"></feComposite><feGaussianBlur in="composite" stdDeviation="15" result="blur"></feGaussianBlur><feOffset dx="0" dy="0" result="offset"></feOffset><feComposite in="SourceGraphic" in2="offset" operator="over"></feComposite></filter></defs><rect fill="#292929" fill-opacity="1" height="512" width="512" rx="32" ry="32"></rect><g class="" style="" transform="translate(0,0)"><path d="M331.924 20.385c-36.708.887-82.53 60.972-116.063 147.972h.003c30.564-65.57 71.17-106.39 97.348-99.378 28.058 7.516 37.11 69.42 24.847 148.405-.895-.32-1.773-.642-2.672-.96.893.367 1.765.738 2.65 1.106-2.988 19.215-7.22 39.424-12.767 60.12a597.023 597.023 0 0 1-8.936 30.14c-24.996-3.82-52.374-9.537-80.82-17.16-105.856-28.36-186.115-72.12-179.307-97.53 4.257-15.884 42.167-23.775 95.908-20.29-74.427-8.7-128.912-2.044-135.035 20.803-9.038 33.73 89.168 89.372 219.147 124.2 24.436 6.55 48.267 11.897 70.918 16.042-28.965 75.878-68.293 126.078-96.653 118.48-21.817-5.85-35.995-45.443-36.316-100.206-4.79 75.476 9.278 131.945 40.66 140.356 38.836 10.407 91.394-54.998 127.896-152.98 80.12 10.74 138.958 4.278 145.38-19.682 6.384-23.82-41.025-58.44-115.102-89.03 20.713-109.022 8.483-198.5-31.96-209.34a32.105 32.105 0 0 0-9.124-1.07zm40.568 213.086c44.65 22.992 71.146 47.135 67.07 62.348-4.055 15.13-38.104 20.457-87.333 16.303a683.98 683.98 0 0 0 9.63-32.663 677.026 677.026 0 0 0 10.632-45.986z" fill="#fff" fill-opacity="1" filter="url(#shadow-1)" stroke="#ff8033" stroke-opacity="1" stroke-width="8"></path></g></svg>