<svg style="height: 512px; width: 512px;" xmlns="http://www.w3.org/2000/svg" viewBox="0 0 512 512"><defs><filter id="shadow-1" height="300%" width="300%" x="-100%" y="-100%"><feFlood flood-color="rgba(255, 128, 51, 1)" result="flood"></feFlood><feComposite in="flood" in2="SourceGraphic" operator="atop" result="composite"></feComposite><feGaussianBlur in="composite" stdDeviation="15" result="blur"></feGaussianBlur><feOffset dx="0" dy="0" result="offset"></feOffset><feComposite in="SourceGraphic" in2="offset" operator="over"></feComposite></filter></defs><rect fill="#292929" fill-opacity="1" height="512" width="512" rx="32" ry="32"></rect><g class="" style="" transform="translate(0,0)"><path d="m29 30 1 90h36V66h26V30H29zm99 0v36h72V30h-72zm108 0v36h72V30h-72zm108 0v36h72V30h-72zm102 0v78h36V30h-36zm-206 80v36h100.543l-118 118H30v218h218V289.457l118-118V272h36V110H240zm206 34v72h36v-72h-36zM30 156v72h36v-72H30zm416 96v72h36v-72h-36zm0 108v72h36v-72h-36zm-166 86v36h72v-36h-72zm108 0v36h72v-36h-72z" fill="#fff" fill-opacity="1" filter="url(#shadow-1)" stroke="#ff8033" stroke-opacity="1" stroke-width="8"></path></g></svg>